<svg xmlns="http://www.w3.org/2000/svg" width="210mm" height="210mm" viewBox="0 0 21000 29700">
  <g id="Camada_x0020_1">
    <path fill="#fff" d="M12634.06 6732.7l0 6317.74c42.46,1956.16 -779.12,3700.68 -2611.94,4529.56 -1021.4,461.94 -2117.28,434.96 -3399.51,434.96l-3783.69 0c0,-2388.37 0,-4776.73 0,-7165.11l4153.49 0c0,1024.77 0,2079.12 0,3103.89l802.11 0c796.2,0 745.07,-443.94 745.07,-1014.68l0 -3491.34 -5700.67 0c0,-1352.37 0,-2704.76 0,-4057.14l6970.82 0 0 1342.12 -5597.1 0 0 1298.91 5597.1 0c0,1537.8 0,3075.59 0,4613.39 0,851.64 137.16,1463.91 -604.94,2103.89 -687.92,593.25 -1367.39,444.17 -2212.39,444.17l-1281.95 0 0 -3060.28 -1497.82 0 0 4525.27 2872.85 0c993.19,0 1927.75,-23.25 2686.52,-406.63 1211.18,-611.92 1590.43,-1934.51 1590.43,-3200.98 0,-2553.29 0,-5106.57 0,-7659.86l5470.95 0 1271.62 0c0,1322.45 0,2644.9 0,3967.36l-4081.02 0 0 -1268.13 2809.4 0 0 -1357.11 -4199.33 0zm4466 5608.02c1.47,-0.89 2.97,-1.73 4.48,-2.5 76.25,-42.53 151.59,-79.18 226.01,-109.91 110.61,-45.67 219.23,-78.25 325.85,-97.74l-569.85 -361.36c-475.99,40 -915.51,115.01 -1318.48,224.99 -371.65,101.43 -713.29,232.84 -1024.91,394.22 274.64,254.13 523.99,427.62 748.02,520.43 233.39,96.69 437.88,104.54 613.44,23.57l0.04 0.1 2.97 -1.31c118.06,-48.38 230.45,-102.24 337.12,-161.55 105.87,-58.86 206.54,-123.43 301.98,-193.67 119.87,-91.99 237.64,-170.41 353.33,-235.27zm-1771.93 -2078.64c-52.47,-55.45 -131.71,-78.04 -206.25,-57.49 -71.83,19.81 -126.86,76.24 -145.65,146.99 -13.71,4.26 -27.42,8.62 -41.14,13.07l-1.91 0.62c-396.21,128.74 -663.04,365.93 -801.07,709.76 -135.33,337.16 -143.52,774.77 -25.12,1311.04 7.08,35.13 38.13,61.6 75.35,61.6l399.08 -0.01c310.43,295.79 594.2,496.96 851.28,603.46 274.76,113.83 520.25,120.88 736.41,21.13 122.5,-50.32 239.3,-106.39 350.4,-168.16 112.54,-62.57 218.87,-130.72 318.95,-204.43l1.2 -0.89c98.07,-75.29 194.21,-140.83 288.43,-196.6l297.51 286.15c79.12,76.11 164.24,124.89 246.23,146.57 75.71,20.02 149.22,17.23 214.28,-8.07 66.6,-25.9 122.67,-74.37 161.68,-145.04 36.33,-65.82 57.41,-151.31 57.17,-255.81 -0.17,-75.7 -14.69,-153.22 -43.66,-223.23 -27.18,-65.69 -67.08,-125.37 -119.88,-171.94 -3.83,-3.78 -8.12,-7.22 -12.85,-10.22l-758 -480.68c-37.03,-114.76 -73.81,-230.16 -109.99,-346.94 -37.44,-120.86 -74.76,-245.23 -111.79,-375.16 -27.87,-97.73 -60.78,-194.78 -108.23,-280.61 -50.44,-91.27 -116.65,-168.8 -208.93,-220.11 -237.39,-131.97 -498.11,-194.43 -771.96,-202.18 -162.06,-4.59 -328.57,10.04 -497.4,40.76l-3.3 0.59c-10.27,1.89 -20.55,3.83 -30.84,5.83zm1941.67 2162.83l262.5 252.49c59.57,57.29 121.22,93.38 178.72,108.58 44.15,11.67 85.18,10.76 119.62,-2.64 32.9,-12.79 61.33,-38.06 82.12,-75.72 24.46,-44.32 38.66,-104.81 38.48,-181.65 -0.13,-55.89 -10.84,-113.1 -32.21,-164.75 -15.24,-36.82 -35.91,-70.47 -62.01,-98.16 -149.72,4.68 -305.74,40.52 -467.98,107.53 -39.39,16.25 -79.13,34.37 -119.24,54.32zm-2677.32 -130.97c43.04,-23.35 86.65,-46.13 130.86,-68.34 -138.35,-349.36 -196.41,-672.66 -174.18,-969.88 17.31,-231.27 82.93,-446.19 196.82,-644.76 -223,120.51 -379.94,294.51 -470.99,521.34 -118.78,295.91 -128.75,683.64 -30.44,1161.65l347.93 -0.01zm269.71 -135.32c268.24,-124.21 556.73,-228.46 865.48,-312.72 393.36,-107.35 818.51,-182.07 1275.43,-224.13 -30.46,-94.9 -60.48,-189.52 -89.62,-283.59 -40.11,-129.46 -78.2,-256.1 -112.99,-378.17 -25.26,-88.58 -54.51,-175.47 -94.97,-248.67 -37.45,-67.76 -84.88,-124.37 -148.65,-159.82 -214.61,-119.32 -451.6,-175.83 -701.41,-182.89 -18.87,-0.54 -37.8,-0.78 -56.81,-0.76 27.29,14.41 53.88,30.08 79.66,46.97 146.65,96.08 267.76,231.41 346.99,395.33 18.48,38.29 2.42,84.31 -35.87,102.78 -38.29,18.48 -84.31,2.42 -102.79,-35.87 -66.72,-138 -168.89,-252.09 -292.73,-333.23 -121.72,-79.73 -264.13,-127.57 -414.19,-134.98 -124,23.04 -249.65,55.29 -375.95,95.33 -179.55,227.65 -279.86,481.98 -300.88,762.97 -20.3,271.36 32.81,568.51 159.3,891.45zm-825.22 1822.67l2796.42 0 1271.62 0 0 1342.12 0 1357.11 0 1268.13 -1271.62 0 -4206.53 0c548.68,-488.05 795.33,-820.35 956.72,-1268.13l3249.81 0 0 -1357.11 -2796.42 0 0 -1342.12z"/>
    <path fill="#fff" d="M16930.4 19461.88l0 357.07 548.25 0c51.84,0 78.03,-19.9 78.03,-59.71l0 -237.64c0,-39.8 -26.19,-59.72 -78.03,-59.72l-548.25 0zm939.42 -357.07c156.58,0 235.13,59.72 235.13,178.75l0 624.77c0,119.02 -65.2,178.33 -196.12,178.33l-978.43 0 0 714.14 -547.73 0 0 -1695.99 1487.15 0zm-3287.46 1695.99l117.56 -357.07 569.64 0 -374.05 -981.85 -547.75 1338.92 -626.27 0 821.86 -1695.99 665.29 0 860.87 1695.99 -1487.15 0zm-2857.29 -1517.24c0,-119.03 78.02,-178.75 234.59,-178.75l1487.68 0 -235.11 357.07 -860.88 0c-52.37,0 -78.55,19.92 -78.55,59.72l0 862.82c0,39.41 26.18,59.31 78.55,59.31l1095.99 0 -235.11 357.07 -1252.57 0c-156.57,0 -234.59,-59.71 -234.59,-178.74l0 -1338.5zm-1487.7 1100.86c0,39.41 26.18,59.31 78.55,59.31l469.71 0c51.83,0 78.03,-19.9 78.03,-59.31l0 -862.82c-1.07,-39.8 -27.26,-59.72 -78.03,-59.72l-469.71 0c-52.37,0 -78.55,19.92 -78.55,59.72l0 862.82zm1174.55 237.64c0,119.03 -78.55,178.74 -235.13,178.74l-1252.56 0c-156.58,0 -234.59,-59.71 -234.59,-178.74l0 -1338.5c0,-119.03 78.01,-178.75 234.59,-178.75l1252.56 0c156.58,0 235.13,59.72 235.13,178.75l0 1338.5zm-3209.98 -602.02l0 780.76 -547.73 0 0 -1695.99 1487.16 0c156.57,0 235.11,59.72 235.11,178.75l0 624.77c0,119.02 -65.18,178.33 -196.11,178.33l-223.9 0 537.05 714.14 -704.3 0 -587.28 -780.76zm626.29 -52.41l0 -446.03c0,-39.8 -26.19,-59.72 -78.03,-59.72l-548.26 0 0 505.75 626.29 0zm-1488.76 833.17l-547.73 0 0 -1695.99 549.33 0 -1.6 1695.99zm-2348.04 0l117.57 -357.07 569.64 0 -374.06 -981.85 -547.74 1338.92 -626.28 0 821.87 -1695.99 665.29 0 860.87 1695.99 -1487.16 0zm-2152.45 0l234.58 -357.07 156.57 0c52.38,0 78.56,-19.9 78.56,-59.31l0 -1279.61 547.73 0 0 1517.25c-3.74,119.03 -82.31,178.74 -234.59,178.74l-782.85 0z"/>
  </g>
</svg>
